{"glyphs":{":":{"x_min":0,"x_max":146,"ha":146,"o":"m 0 579 l 94 579 l 94 440 l 0 440 z m 59 475 l 59 544 l 35 544 l 35 475 z m 0 165 l 0 304 l 94 304 l 94 165 z m 35 268 l 35 200 l 59 200 l 59 268 z"},"$":{"x_min":0,"x_max":356,"ha":356,"o":"m 204 739 l 204 684 q 230 676 247 664 q 264 651 275 638 q 313 589 313 504 l 313 457 l 277 457 l 277 504 q 277 578 247 616 q 220 651 168 654 l 168 739 z m 119 332 q 105 340 85 351 q 65 362 46 382 q 0 431 0 504 q 0 542 10 574 q 19 605 36 630 q 63 667 109 683 l 109 739 l 144 739 l 144 654 q 120 652 100 640 q 79 629 65 609 q 51 589 43 562 q 35 536 35 504 q 35 446 72 406 q 87 390 104 380 q 121 371 135 364 q 140 362 144 360 q 147 358 150 356 q 157 351 168 347 q 181 341 196 333 q 210 325 223 312 q 236 298 244 278 q 253 259 253 231 q 253 174 228 142 q 202 109 156 109 q 108 109 84 139 q 59 168 59 235 l 59 283 l 94 283 l 94 235 q 94 182 112 161 q 116 156 126 150 q 135 144 156 144 q 176 144 188 153 q 201 162 208 176 q 214 189 216 204 q 218 219 218 231 q 218 250 213 263 q 208 276 200 285 q 191 294 179 301 q 167 308 153 315 q 139 320 132 325 q 130 327 126 328 q 123 330 119 332 z m 192 401 q 205 395 226 384 q 247 372 266 352 q 285 333 299 304 q 313 274 313 231 q 313 156 275 107 q 247 69 204 57 l 204 0 l 168 0 l 168 86 q 217 89 247 128 q 277 167 277 231 q 277 265 266 288 q 256 312 240 328 q 225 343 208 352 q 191 362 178 368 q 173 370 169 372 q 165 374 162 376 q 159 378 155 380 q 151 382 146 385 q 133 391 118 400 q 102 409 89 422 q 76 436 68 456 q 59 475 59 504 q 59 561 84 595 q 109 631 156 631 q 205 631 229 601 q 253 569 253 504 l 253 457 l 218 457 l 218 504 q 218 557 201 579 q 196 584 186 590 q 177 595 156 595 q 135 595 122 584 q 110 573 104 558 q 97 543 96 528 q 94 512 94 504 q 94 485 99 472 q 104 459 113 449 q 122 439 134 431 q 147 423 162 416 q 167 414 172 412 q 176 409 180 406 q 186 404 192 401 z m 109 0 l 109 56 q 83 63 66 76 q 48 89 38 102 q 0 149 0 235 l 0 283 l 35 283 l 35 235 q 35 163 65 124 q 94 89 144 86 l 144 0 z"},"?":{"x_min":0,"x_max":364,"ha":364,"o":"m 120 371 q 124 375 128 379 q 132 383 137 388 q 147 398 161 413 q 175 428 188 447 q 200 466 208 489 q 217 512 218 539 q 218 555 214 573 q 211 591 204 607 q 197 623 186 634 q 174 644 156 644 q 149 644 138 642 q 128 641 118 630 q 108 620 101 598 q 94 576 94 535 l 94 487 l 59 487 l 59 535 q 59 680 156 680 q 201 680 228 638 q 253 599 253 540 q 253 508 243 480 q 233 453 219 431 q 205 409 190 392 q 174 375 162 363 l 147 348 q 125 322 122 288 q 118 255 118 213 l 118 164 l 82 164 l 82 213 q 82 236 82 257 q 83 278 86 298 q 90 318 98 336 q 106 354 120 371 z m 313 535 l 312 535 q 311 495 298 462 q 286 428 270 401 q 253 374 235 354 q 217 335 204 322 l 192 310 q 181 296 179 274 q 177 252 177 213 l 177 164 l 141 164 l 141 213 q 141 253 144 282 q 147 311 165 333 l 179 347 q 191 359 207 376 q 223 394 238 418 q 253 441 264 470 q 275 500 277 535 l 277 543 q 276 575 268 602 q 261 630 248 651 q 214 703 156 703 q 96 703 65 658 q 35 616 35 535 l 35 487 l 0 487 l 0 535 q 0 627 36 678 q 77 739 156 739 q 194 739 226 722 q 257 704 278 670 q 311 617 312 543 l 313 543 z m 141 108 l 176 108 l 176 2 l 82 2 l 82 108 l 117 108 l 117 37 l 141 37 z"},"<":{"x_min":0,"x_max":833,"ha":833,"o":""},"'":{"x_min":0,"x_max":158,"ha":158,"o":"m 0 739 l 94 739 l 94 588 l 0 588 z m 35 623 l 59 623 l 59 703 l 35 703 z"},"=":{"x_min":0,"x_max":833,"ha":833,"o":"m 0 492 l 0 527 l 302 527 l 302 492 z m 302 433 l 0 433 l 0 468 l 302 468 z m 0 272 l 0 307 l 302 307 l 302 272 z m 302 213 l 0 213 l 0 248 l 302 248 z"},"a":{"x_min":0,"x_max":469,"ha":469,"o":"m 126 241 l 310 241 l 366 0 l 330 0 l 282 205 l 154 205 l 107 0 l 70 0 z m 131 264 l 218 637 l 304 264 z m 260 300 l 218 480 l 176 300 z m 256 737 l 427 0 l 390 0 l 229 695 l 207 695 l 46 0 l 10 0 l 181 737 l 189 737 l 217 737 l 219 737 l 247 737 z"},"L":{"x_min":0,"x_max":356,"ha":356,"o":"m 59 738 l 94 738 l 94 95 l 321 95 l 321 60 l 59 60 z m 35 36 l 321 36 l 321 1 l 0 1 l 0 738 l 35 738 z"},"3":{"x_min":0,"x_max":360,"ha":360,"o":"m 250 361 q 272 341 292 302 q 313 264 313 203 q 313 162 304 127 q 295 92 278 65 q 257 33 226 16 q 194 -2 156 -2 q 77 -2 35 60 q 18 87 9 124 q 0 160 0 208 l 0 255 l 35 255 l 35 208 q 35 154 46 120 q 57 85 74 66 q 92 47 114 40 q 135 33 156 33 q 212 33 244 79 q 277 125 277 203 q 277 254 260 286 q 243 319 225 336 q 205 355 181 365 q 207 378 225 396 q 243 413 260 445 q 277 477 277 529 q 277 607 244 653 q 212 699 156 699 q 94 699 65 652 q 35 608 35 524 l 35 477 l 0 477 l 0 524 q 0 619 35 672 q 78 735 156 735 q 235 735 278 666 q 313 611 313 529 q 313 468 292 430 q 272 391 250 370 q 248 369 248 368 q 247 367 245 366 z m 253 529 q 253 490 241 462 q 229 433 210 414 q 192 395 170 386 q 149 377 130 377 l 85 377 l 85 413 l 130 413 q 140 413 156 419 q 171 425 184 438 q 198 452 208 474 q 218 496 218 529 q 218 533 216 551 q 215 569 209 588 q 203 608 190 624 q 178 640 156 640 q 150 640 140 638 q 129 636 119 626 q 109 615 102 591 q 94 567 94 524 l 94 477 l 59 477 l 59 524 q 59 676 156 676 q 202 676 228 635 q 253 594 253 529 z m 156 57 q 108 57 85 93 q 59 131 59 208 l 59 255 l 94 255 l 94 208 q 94 166 100 144 q 107 123 114 112 q 119 104 128 98 q 137 92 156 92 q 178 92 190 106 q 203 121 209 140 q 215 159 216 178 q 218 196 218 203 q 218 235 208 257 q 198 279 184 292 q 171 306 156 312 q 140 318 130 318 l 114 318 l 85 318 l 85 354 l 118 354 l 130 354 q 146 354 168 346 q 189 338 209 319 q 224 304 238 276 q 253 248 253 203 q 253 138 228 97 q 203 57 156 57 z"},";":{"x_min":0,"x_max":158,"ha":158,"o":"m 0 579 l 94 579 l 94 440 l 0 440 z m 59 475 l 59 544 l 35 544 l 35 475 z m 0 208 l 0 304 l 94 304 l 94 113 z m 35 268 l 35 219 l 59 196 l 59 268 z"},"J":{"x_min":0,"x_max":405,"ha":405,"o":"m 94 244 l 94 197 q 94 159 102 138 q 109 117 120 108 q 131 98 143 96 q 155 95 165 95 q 190 95 201 102 q 212 108 217 114 q 236 139 236 197 l 236 738 l 271 738 l 271 197 q 271 126 244 92 q 219 60 165 60 q 112 60 86 92 q 59 126 59 197 l 59 244 z m 330 738 l 330 197 q 330 105 290 55 q 276 36 246 18 q 216 1 165 1 q 115 1 85 18 q 55 36 40 55 q 0 105 0 197 l 0 244 l 35 244 l 35 197 q 35 117 68 77 q 101 36 165 36 q 230 36 263 77 q 295 118 295 197 l 295 738 z"},"V":{"x_min":0,"x_max":461,"ha":461,"o":"m 380 737 l 220 96 l 60 737 l 97 737 l 220 242 l 345 737 z m 405 737 l 442 737 l 257 0 l 248 0 l 221 0 l 220 0 l 192 0 l 183 0 l 0 737 l 35 737 l 210 39 l 230 39 z"},"\"":{"x_min":0,"x_max":283,"ha":283,"o":"m 0 588 l 0 739 l 94 739 l 94 588 z m 35 703 l 35 623 l 59 623 l 59 703 z m 139 739 l 233 739 l 233 588 l 139 588 z m 198 623 l 198 703 l 174 703 l 174 623 z"},"7":{"x_min":0,"x_max":429,"ha":429,"o":"m 271 676 l 336 676 l 53 -2 l 12 -2 l 283 640 l 0 640 l 0 676 z m 387 735 l 387 645 l 387 645 l 387 640 l 385 640 l 115 -2 l 79 -2 l 359 670 l 359 699 l 0 699 l 0 735 z"},"S":{"x_min":0,"x_max":397,"ha":397,"o":"m 290 351 q 352 294 352 204 q 352 119 310 63 q 261 0 176 0 q 88 0 43 57 q 0 110 0 209 l 0 256 l 35 256 l 35 209 q 35 123 70 79 q 106 35 176 35 q 209 35 236 48 q 263 60 281 85 q 298 107 307 138 q 316 168 316 204 q 316 247 301 276 q 286 306 266 325 q 245 344 224 354 q 202 365 189 370 l 173 377 q 159 383 140 393 q 120 403 102 420 q 84 438 72 464 q 59 489 59 526 q 59 552 65 579 q 71 606 85 628 q 99 650 122 664 q 144 678 176 678 q 234 678 263 642 q 293 604 293 526 l 293 479 l 257 479 l 257 526 q 257 569 248 593 q 240 617 227 628 q 214 638 200 640 q 186 642 176 642 q 147 642 131 628 q 115 614 106 594 q 98 575 96 556 q 94 536 94 526 q 94 500 102 482 q 110 463 123 450 q 136 436 152 426 q 169 417 187 410 l 203 403 q 217 397 242 386 q 266 374 290 351 z m 60 378 q 0 436 0 526 q 0 573 12 612 q 25 651 48 678 q 72 706 104 722 q 137 737 176 737 q 230 737 262 718 q 293 699 309 679 q 352 624 352 526 l 352 479 l 316 479 l 316 526 q 316 614 281 656 q 246 701 176 701 q 108 701 70 649 q 35 602 35 526 q 35 483 50 453 q 64 423 84 404 q 105 384 127 373 q 149 362 163 356 l 180 348 q 193 343 212 334 q 231 325 249 308 q 267 292 280 266 q 293 241 293 204 q 293 135 262 97 q 231 59 176 59 q 117 59 89 94 q 59 131 59 209 l 59 256 l 94 256 l 94 209 q 94 144 117 116 q 122 109 135 102 q 148 94 176 94 q 203 94 219 106 q 235 117 244 134 q 252 150 254 170 q 257 189 257 204 q 257 230 249 248 q 241 266 228 278 q 215 291 199 300 q 183 308 167 315 l 149 323 q 133 330 108 342 q 84 355 60 378 z"},"}":{"x_min":0,"x_max":833,"ha":833,"o":""},"Z":{"x_min":0,"x_max":457,"ha":457,"o":"m 122 94 l 396 94 l 396 59 l 77 59 l 77 79 l 346 652 l 346 701 l 0 701 l 0 737 l 380 737 l 380 646 z m 51 79 l 51 35 l 396 35 l 396 0 l 16 0 l 16 23 l 16 23 l 16 82 l 16 82 l 16 92 l 274 642 l 0 642 l 0 678 l 322 678 l 322 659 l 323 659 z"},"x":{"x_min":0,"x_max":498,"ha":498,"o":"m 41 0 l 0 0 l 174 368 l 3 737 l 42 737 l 215 369 z m 228 397 l 68 737 l 108 737 l 227 479 l 349 737 l 389 737 z m 454 737 l 279 368 l 452 0 l 415 0 l 241 369 l 415 737 z m 228 341 l 389 0 l 348 0 l 227 258 l 105 0 l 67 0 z"},")":{"x_min":0,"x_max":214,"ha":214,"o":"m 21 58 l 2 88 l 0 86 q 0 86 11 98 q 22 111 34 143 q 47 175 58 230 q 68 285 68 371 q 68 453 58 506 q 49 560 37 592 q 25 623 14 636 q 3 649 1 651 l 21 683 l 23 682 q 29 677 36 669 q 49 655 64 624 q 78 592 92 532 q 105 472 105 372 q 105 272 92 212 q 78 151 64 119 q 48 85 36 72 q 29 64 23 59 z m 114 651 q 163 550 163 371 q 163 194 114 90 q 95 48 77 30 q 59 13 53 8 l 34 38 l 35 39 q 36 40 51 54 q 66 68 84 105 q 101 142 115 206 q 129 271 129 372 q 129 473 115 537 q 101 601 84 637 q 66 673 51 687 q 36 701 35 702 l 34 703 l 52 731 q 58 727 76 710 q 94 693 114 651 z"},"&":{"x_min":0,"x_max":506,"ha":506,"o":"m 59 199 q 59 227 66 248 q 72 270 84 287 q 96 304 112 318 q 127 333 145 348 q 154 356 162 364 q 171 371 180 379 l 322 135 q 281 61 183 61 q 151 61 128 73 q 104 85 89 104 q 74 124 66 148 q 59 173 59 199 z m 168 321 q 151 306 137 294 q 123 281 114 268 q 104 254 99 238 q 94 221 94 199 q 94 181 99 162 q 104 144 114 130 q 125 115 142 106 q 159 96 183 96 q 247 96 280 136 l 171 324 z m 401 2 l 362 2 l 330 52 q 272 2 183 2 q 142 2 107 18 q 72 33 47 62 q 0 118 0 199 q 0 238 10 268 q 19 297 34 320 q 50 342 69 360 q 88 377 107 393 q 111 396 114 399 q 118 402 121 405 q 112 420 102 439 q 93 458 85 480 q 77 502 72 524 q 66 547 66 570 q 66 644 87 683 q 118 739 183 739 q 254 739 283 674 q 294 650 296 622 q 299 594 299 570 q 299 528 288 488 q 278 449 258 416 q 253 408 249 402 q 245 396 241 391 l 320 257 q 322 274 322 290 q 322 307 322 321 l 322 369 l 358 369 l 358 321 q 358 288 354 244 q 350 201 334 161 l 198 395 q 205 402 216 416 q 227 431 238 452 q 248 474 256 504 q 264 533 264 570 q 264 591 262 616 q 259 640 250 660 q 232 703 183 703 q 139 703 118 667 q 102 635 102 570 q 102 545 110 518 q 118 492 128 469 q 139 446 150 428 q 161 409 167 399 q 158 390 148 382 q 139 374 130 366 q 112 351 94 335 q 77 319 64 300 q 51 280 43 256 q 35 232 35 199 q 35 166 45 136 q 55 107 74 85 q 116 37 183 37 q 285 37 336 112 l 376 43 z m 417 321 q 417 284 412 234 q 408 185 389 138 l 474 2 l 429 2 l 396 55 l 349 136 q 349 136 351 140 q 371 185 376 234 q 381 284 381 321 l 381 369 l 417 369 z m 183 680 q 214 680 227 655 q 240 630 240 570 q 240 538 234 513 q 228 488 219 469 q 210 450 200 436 q 191 423 184 416 q 178 426 168 444 q 158 461 148 482 q 139 503 132 526 q 125 549 125 570 q 125 606 130 628 q 135 650 143 662 q 151 673 162 676 q 172 680 183 680 z m 187 483 q 194 500 199 522 q 204 543 204 570 q 204 574 204 582 q 204 591 203 600 q 202 610 200 620 q 199 629 196 636 q 194 641 192 642 q 190 644 183 644 q 176 644 174 643 q 173 642 171 639 q 167 632 164 617 q 161 602 161 570 q 161 550 168 527 q 176 504 187 483 z"},"_":{"x_min":0,"x_max":465,"ha":465,"o":"m 467 -36 l 0 -36 l 0 0 l 467 0 z m 0 -59 l 467 -59 l 467 -95 l 0 -95 z"},"v":{"x_min":0,"x_max":461,"ha":461,"o":"m 380 737 l 220 96 l 60 737 l 97 737 l 220 242 l 345 737 z m 405 737 l 442 737 l 257 0 l 248 0 l 221 0 l 220 0 l 192 0 l 183 0 l 0 737 l 35 737 l 210 39 l 230 39 z"},"O":{"x_min":0,"x_max":405,"ha":405,"o":"m 175 680 q 234 680 261 644 q 291 608 291 530 l 291 212 q 291 61 175 61 q 59 61 59 212 l 59 530 q 59 608 89 644 q 116 680 175 680 z m 256 530 q 256 573 248 596 q 239 620 226 630 q 213 641 199 643 q 185 645 175 645 q 164 645 150 643 q 137 641 124 630 q 111 620 102 596 q 94 573 94 530 l 94 212 q 94 168 102 144 q 111 121 124 110 q 137 100 150 98 q 164 96 175 96 q 185 96 199 98 q 213 100 226 110 q 239 121 248 144 q 256 168 256 212 z m 308 681 q 350 627 350 530 l 350 212 q 350 113 308 61 q 300 51 288 40 q 277 30 260 22 q 244 13 223 8 q 202 2 175 2 q 121 2 90 22 q 58 41 42 61 q 0 113 0 212 l 0 530 q 0 627 42 681 q 58 701 90 720 q 121 739 175 739 q 229 739 260 720 q 292 701 308 681 z m 315 530 q 315 615 280 659 q 244 704 175 704 q 106 704 70 659 q 35 615 35 530 l 35 212 q 35 127 70 83 q 107 37 175 37 q 243 37 280 83 q 315 127 315 212 z"},"(":{"x_min":0,"x_max":206,"ha":206,"o":"m 130 38 l 111 8 q 105 12 87 30 q 69 47 49 89 q 0 190 0 368 q 0 545 48 650 q 68 692 86 710 q 104 727 110 731 l 129 702 q 127 701 112 686 q 98 672 80 635 q 63 598 49 534 q 35 469 35 368 q 35 267 50 204 q 64 140 81 104 q 98 67 113 54 q 128 40 129 39 z m 94 368 q 94 287 104 234 q 114 180 126 148 q 138 117 149 104 q 160 90 162 88 l 143 58 l 142 59 q 136 63 129 71 q 123 78 116 89 q 109 100 101 117 q 87 148 73 208 q 59 269 59 368 q 59 468 73 529 q 87 590 101 622 q 115 654 129 669 q 136 677 142 682 l 161 652 q 161 652 163 653 q 163 653 152 640 q 141 628 128 596 q 115 564 104 509 q 94 454 94 368 z"},"C":{"x_min":0,"x_max":409,"ha":409,"o":"m 314 480 l 314 527 q 314 613 280 657 q 244 701 175 701 q 106 701 70 657 q 35 611 35 527 l 35 210 q 35 156 48 122 q 61 87 81 68 q 101 49 126 42 q 151 35 175 35 q 199 35 224 42 q 248 49 268 68 q 288 87 301 122 q 314 156 314 210 l 314 258 l 350 258 l 350 210 q 350 113 307 59 q 291 39 260 20 q 229 0 175 0 q 148 0 127 6 q 106 11 90 20 q 73 28 62 38 q 50 49 42 59 q 0 111 0 210 l 0 527 q 0 625 42 678 q 50 688 62 698 q 73 709 90 718 q 106 726 127 732 q 148 737 175 737 q 229 737 260 718 q 291 698 307 678 q 350 624 350 527 l 350 480 z m 175 678 q 291 678 291 527 l 291 480 l 255 480 l 255 527 q 255 570 246 594 q 238 617 226 628 q 213 638 199 640 q 185 642 175 642 q 164 642 150 640 q 137 638 124 628 q 111 617 102 594 q 94 570 94 527 l 94 210 q 94 145 117 117 q 122 109 135 102 q 148 94 175 94 q 202 94 214 102 q 227 109 233 117 q 255 145 255 210 l 255 258 l 291 258 l 291 210 q 291 59 175 59 q 59 59 59 210 l 59 527 q 59 678 175 678 z"},"W":{"x_min":0,"x_max":720,"ha":720,"o":"m 332 698 l 201 102 l 61 737 l 97 737 l 201 266 l 305 737 l 317 737 l 341 737 l 344 737 l 374 737 l 381 737 l 484 266 l 588 737 l 624 737 l 484 102 l 353 698 z m 648 737 l 685 737 l 522 0 l 514 0 l 486 0 l 483 0 l 457 0 l 446 0 l 343 470 l 239 0 l 229 0 l 203 0 l 199 0 l 172 0 l 163 0 l 0 737 l 37 737 l 191 39 l 211 39 l 343 635 l 474 39 l 495 39 z"},"A":{"x_min":0,"x_max":469,"ha":469,"o":"m 126 241 l 310 241 l 366 0 l 330 0 l 282 205 l 154 205 l 107 0 l 70 0 z m 131 264 l 218 637 l 304 264 z m 260 300 l 218 480 l 176 300 z m 256 737 l 427 0 l 390 0 l 229 695 l 207 695 l 46 0 l 10 0 l 181 737 l 189 737 l 217 737 l 219 737 l 247 737 z"},"f":{"x_min":0,"x_max":372,"ha":372,"o":"m 305 642 l 94 642 l 94 416 l 305 416 l 305 380 l 59 380 l 59 678 l 305 678 z m 35 357 l 35 0 l 0 0 l 0 737 l 305 737 l 305 701 l 35 701 l 35 380 z m 59 357 l 305 357 l 305 321 l 94 321 l 94 0 l 59 0 z"},"Q":{"x_min":0,"x_max":405,"ha":405,"o":"m 345 -45 l 296 -45 l 248 14 q 217 0 175 0 q 121 0 90 20 q 58 40 42 61 q 0 115 0 214 l 0 530 q 0 597 18 638 q 36 679 62 701 q 89 723 120 730 q 150 737 175 737 q 199 737 230 730 q 260 723 287 701 q 314 679 332 638 q 350 597 350 530 l 350 214 q 350 130 318 77 l 419 -45 l 376 -45 l 275 77 q 277 78 278 79 q 278 80 280 82 q 314 130 314 214 l 314 530 q 314 701 175 701 q 35 701 35 530 l 35 214 q 35 129 70 82 q 106 35 175 35 q 224 35 258 60 z m 250 156 q 252 167 254 183 q 255 199 255 214 l 255 530 q 255 569 248 592 q 241 614 230 625 q 218 636 204 639 q 190 642 175 642 q 160 642 146 639 q 131 636 120 625 q 108 614 101 592 q 94 569 94 530 l 94 214 q 94 147 117 118 q 123 110 136 102 q 148 94 175 94 l 182 94 l 111 182 l 156 182 l 243 79 q 217 59 175 59 q 59 59 59 214 l 59 530 q 59 606 87 642 q 115 678 175 678 q 235 678 262 642 q 290 606 290 530 l 290 214 q 290 133 259 95 l 187 182 l 229 182 z"},"w":{"x_min":0,"x_max":720,"ha":720,"o":"m 332 698 l 201 102 l 61 737 l 97 737 l 201 266 l 305 737 l 317 737 l 341 737 l 344 737 l 374 737 l 381 737 l 484 266 l 588 737 l 624 737 l 484 102 l 353 698 z m 648 737 l 685 737 l 522 0 l 514 0 l 486 0 l 483 0 l 457 0 l 446 0 l 343 470 l 239 0 l 229 0 l 203 0 l 199 0 l 172 0 l 163 0 l 0 737 l 37 737 l 191 39 l 211 39 l 343 635 l 474 39 l 495 39 z"},"-":{"x_min":0,"x_max":376,"ha":376,"o":"m 0 382 l 0 417 l 302 417 l 302 382 z m 302 323 l 0 323 l 0 358 l 302 358 z"},"E":{"x_min":0,"x_max":372,"ha":372,"o":"m 35 35 l 305 35 l 305 0 l 0 0 l 0 737 l 305 737 l 305 701 l 35 701 l 35 380 l 35 357 z m 305 321 l 94 321 l 94 94 l 305 94 l 305 59 l 59 59 l 59 357 l 305 357 z m 305 642 l 94 642 l 94 416 l 305 416 l 305 380 l 59 380 l 59 678 l 305 678 z"},"s":{"x_min":0,"x_max":397,"ha":397,"o":"m 290 351 q 352 294 352 204 q 352 119 310 63 q 261 0 176 0 q 88 0 43 57 q 0 110 0 209 l 0 256 l 35 256 l 35 209 q 35 123 70 79 q 106 35 176 35 q 209 35 236 48 q 263 60 281 85 q 298 107 307 138 q 316 168 316 204 q 316 247 301 276 q 286 306 266 325 q 245 344 224 354 q 202 365 189 370 l 173 377 q 159 383 140 393 q 120 403 102 420 q 84 438 72 464 q 59 489 59 526 q 59 552 65 579 q 71 606 85 628 q 99 650 122 664 q 144 678 176 678 q 234 678 263 642 q 293 604 293 526 l 293 479 l 257 479 l 257 526 q 257 569 248 593 q 240 617 227 628 q 214 638 200 640 q 186 642 176 642 q 147 642 131 628 q 115 614 106 594 q 98 575 96 556 q 94 536 94 526 q 94 500 102 482 q 110 463 123 450 q 136 436 152 426 q 169 417 187 410 l 203 403 q 217 397 242 386 q 266 374 290 351 z m 60 378 q 0 436 0 526 q 0 573 12 612 q 25 651 48 678 q 72 706 104 722 q 137 737 176 737 q 230 737 262 718 q 293 699 309 679 q 352 624 352 526 l 352 479 l 316 479 l 316 526 q 316 614 281 656 q 246 701 176 701 q 108 701 70 649 q 35 602 35 526 q 35 483 50 453 q 64 423 84 404 q 105 384 127 373 q 149 362 163 356 l 180 348 q 193 343 212 334 q 231 325 249 308 q 267 292 280 266 q 293 241 293 204 q 293 135 262 97 q 231 59 176 59 q 117 59 89 94 q 59 131 59 209 l 59 256 l 94 256 l 94 209 q 94 144 117 116 q 122 109 135 102 q 148 94 176 94 q 203 94 219 106 q 235 117 244 134 q 252 150 254 170 q 257 189 257 204 q 257 230 249 248 q 241 266 228 278 q 215 291 199 300 q 183 308 167 315 l 149 323 q 133 330 108 342 q 84 355 60 378 z"},">":{"x_min":0,"x_max":833,"ha":833,"o":""},"l":{"x_min":0,"x_max":356,"ha":356,"o":"m 59 738 l 94 738 l 94 95 l 321 95 l 321 60 l 59 60 z m 35 36 l 321 36 l 321 1 l 0 1 l 0 738 l 35 738 z"},"8":{"x_min":0,"x_max":388,"ha":388,"o":"m 275 527 q 275 449 250 414 q 224 378 167 378 q 110 378 84 414 q 59 449 59 527 q 59 605 84 640 q 110 676 167 676 q 224 676 250 640 q 275 605 275 527 z m 94 527 q 94 485 101 462 q 108 439 118 428 q 129 418 142 416 q 155 414 167 414 q 179 414 192 416 q 204 418 214 428 q 225 439 232 462 q 239 485 239 527 q 239 569 232 592 q 225 615 214 626 q 204 636 192 638 q 179 640 167 640 q 155 640 142 638 q 129 636 118 626 q 108 615 101 592 q 94 569 94 527 z m 287 366 q 290 363 296 355 q 334 302 334 205 q 334 108 296 56 q 253 -2 167 -2 q 80 -2 38 56 q 0 106 0 205 q 0 304 38 355 q 40 358 42 361 q 45 364 47 366 l 38 378 q 0 428 0 527 q 0 626 38 677 q 81 735 167 735 q 252 735 296 677 q 334 624 334 527 q 334 430 296 378 z m 167 33 q 234 33 266 75 q 298 117 298 205 q 298 293 267 334 q 251 356 228 366 q 298 398 298 527 q 298 616 266 658 q 234 699 167 699 q 99 699 67 658 q 35 616 35 527 q 35 399 105 366 q 83 356 66 334 q 35 293 35 205 q 35 117 67 75 q 99 33 167 33 z m 167 355 q 224 355 250 320 q 275 284 275 205 q 275 127 250 92 q 224 57 167 57 q 110 57 84 92 q 59 127 59 205 q 59 284 84 320 q 110 355 167 355 z m 167 92 q 179 92 192 94 q 204 96 214 106 q 225 117 232 140 q 239 163 239 205 q 239 247 233 268 q 227 290 220 299 q 215 307 204 313 q 193 319 167 319 q 141 319 130 313 q 119 307 114 299 q 107 290 100 268 q 94 247 94 205 q 94 163 101 140 q 108 117 118 106 q 129 96 142 94 q 155 92 167 92 z"},"\\":{"x_min":0,"x_max":384,"ha":384,"o":"m 61 738 l 101 738 l 374 1 l 337 1 l 61 738 z m 36 738 l 312 1 l 273 1 l 0 738 l 36 738 z"},"e":{"x_min":0,"x_max":372,"ha":372,"o":"m 35 35 l 305 35 l 305 0 l 0 0 l 0 737 l 305 737 l 305 701 l 35 701 l 35 380 l 35 357 z m 305 321 l 94 321 l 94 94 l 305 94 l 305 59 l 59 59 l 59 357 l 305 357 z m 305 642 l 94 642 l 94 416 l 305 416 l 305 380 l 59 380 l 59 678 l 305 678 z"},"b":{"x_min":0,"x_max":376,"ha":376,"o":"m 272 368 q 278 362 280 359 q 323 307 323 207 q 323 107 280 55 q 235 0 142 0 l 94 0 l 0 0 l 0 35 l 35 35 l 47 35 l 59 35 l 142 35 q 217 35 253 78 q 287 119 287 207 q 287 294 253 337 q 236 357 210 369 q 287 400 287 530 q 287 618 252 660 q 217 701 142 701 l 47 701 l 35 701 l 0 701 l 0 737 l 142 737 q 235 737 280 681 q 323 629 323 530 q 323 430 280 378 q 276 372 272 368 z m 0 59 l 0 94 l 0 678 l 35 678 l 35 59 z m 264 530 q 264 451 235 416 q 206 380 142 380 l 59 380 l 59 678 l 142 678 q 207 678 235 643 q 264 608 264 530 z m 94 416 l 142 416 q 174 416 188 423 q 202 430 207 438 q 228 463 228 530 q 228 569 222 592 q 215 614 204 625 q 192 636 176 639 q 160 642 142 642 l 94 642 z m 59 357 l 142 357 q 206 357 235 322 q 264 286 264 207 q 264 130 235 93 q 207 59 142 59 l 59 59 z m 94 94 l 142 94 q 160 94 176 97 q 192 100 204 111 q 215 122 222 145 q 228 168 228 207 q 228 247 221 270 q 214 292 202 304 q 191 315 176 318 q 160 321 142 321 l 94 321 z"},"%":{"x_min":0,"x_max":615,"ha":615,"o":"m 453 304 q 483 304 495 284 q 507 263 507 240 l 507 154 q 507 131 495 110 q 483 90 453 90 q 438 90 428 96 q 417 102 410 111 q 404 120 401 132 q 398 143 398 154 l 398 240 q 398 251 401 262 q 404 274 410 283 q 417 292 428 298 q 438 304 453 304 z m 472 240 q 472 269 453 269 q 434 269 434 240 l 434 154 q 434 125 453 125 q 472 125 472 154 z m 453 363 q 477 363 498 354 q 519 345 534 328 q 549 312 558 290 q 566 267 566 240 l 566 154 q 566 127 558 104 q 549 82 534 66 q 519 49 498 40 q 477 31 453 31 q 403 31 371 66 q 339 100 339 154 l 339 240 q 339 294 371 328 q 403 363 453 363 z m 531 240 q 531 277 511 300 q 489 328 453 328 q 416 328 394 300 q 384 289 380 273 q 375 257 375 240 l 375 154 q 375 137 380 121 q 384 105 394 93 q 416 66 453 66 q 489 66 511 93 q 531 118 531 154 z m 168 499 q 168 488 165 476 q 162 465 156 456 q 149 447 138 441 q 128 435 113 435 q 83 435 71 456 q 59 476 59 499 l 59 585 q 59 608 71 628 q 83 649 113 649 q 128 649 138 643 q 149 637 156 628 q 162 619 165 608 q 168 596 168 585 z m 94 499 q 94 470 113 470 q 132 470 132 499 l 132 585 q 132 614 113 614 q 94 614 94 585 z m 227 499 q 227 472 218 450 q 210 427 195 410 q 180 394 159 385 q 138 376 113 376 q 64 376 32 410 q 0 445 0 499 l 0 585 q 0 612 8 634 q 17 657 32 674 q 47 690 68 699 q 89 708 113 708 q 163 708 195 674 q 227 639 227 585 z m 55 438 q 77 411 113 411 q 150 411 172 438 q 191 461 191 499 l 191 585 q 191 602 186 618 q 182 634 172 645 q 150 673 113 673 q 77 673 55 645 q 35 622 35 585 l 35 499 q 35 463 55 438 z m 410 739 l 133 2 l 97 2 l 370 739 z m 471 739 l 198 2 l 159 2 l 435 739 z"},"m":{"x_min":0,"x_max":538,"ha":538,"o":"m 59 607 l 232 5 l 404 607 l 404 1 l 369 1 l 369 354 l 267 1 l 196 1 l 94 354 l 94 1 l 59 1 z m 444 738 l 463 738 l 463 1 l 428 1 l 428 702 l 407 702 l 232 91 l 56 702 l 35 702 l 35 1 l 0 1 l 0 738 l 11 738 l 35 738 l 46 738 l 68 738 l 83 738 l 232 219 l 380 738 l 388 738 l 417 738 l 428 738 z"},"#":{"x_min":0,"x_max":571,"ha":571,"o":"m 185 287 l 217 453 l 367 453 l 334 287 z m 247 417 l 228 323 l 305 323 l 324 417 z m 198 476 l 11 476 l 11 512 l 169 512 l 213 739 l 249 739 z m 447 739 l 481 739 l 438 512 l 552 512 l 552 476 l 395 476 z m 274 739 l 309 739 l 265 512 l 342 512 l 385 739 l 423 739 l 371 476 l 222 476 z m 104 0 l 69 0 l 113 228 l -20 228 l -20 264 l 156 264 z m 161 287 l -20 287 l -20 323 l 132 323 l 150 417 l 11 417 l 11 453 l 193 453 z m 353 264 l 521 264 l 521 228 l 383 228 l 339 0 l 301 0 z m 391 453 l 552 453 l 552 417 l 420 417 l 401 323 l 521 323 l 521 287 l 358 287 z m 277 0 l 243 0 l 287 228 l 210 228 l 165 0 l 128 0 l 180 264 l 329 264 z"},",":{"x_min":0,"x_max":158,"ha":158,"o":"m 0 107 l 94 107 l 94 -86 l 0 4 z m 59 0 l 59 71 l 35 71 l 35 22 z"},"n":{"x_min":0,"x_max":425,"ha":425,"o":"m 318 739 l 354 739 l 354 2 l 343 2 l 318 2 l 313 2 l 286 2 l 274 2 l 94 448 l 94 2 l 59 2 l 59 631 l 298 38 l 318 38 z m 56 703 l 35 703 l 35 2 l 0 2 l 0 739 l 10 739 l 35 739 l 41 739 l 67 739 l 79 739 l 259 293 l 259 739 l 295 739 l 295 110 z"},"h":{"x_min":0,"x_max":409,"ha":409,"o":"m 35 357 l 35 1 l 0 1 l 0 738 l 35 738 l 35 381 z m 59 738 l 94 738 l 94 416 l 236 416 l 236 738 l 272 738 l 272 381 l 59 381 z m 272 1 l 236 1 l 236 322 l 94 322 l 94 1 l 59 1 l 59 357 l 272 357 z m 295 738 l 331 738 l 331 1 l 295 1 l 295 357 l 295 381 z"},"z":{"x_min":0,"x_max":457,"ha":457,"o":"m 122 94 l 396 94 l 396 59 l 77 59 l 77 79 l 346 652 l 346 701 l 0 701 l 0 737 l 380 737 l 380 646 z m 51 79 l 51 35 l 396 35 l 396 0 l 16 0 l 16 23 l 16 23 l 16 82 l 16 82 l 16 92 l 274 642 l 0 642 l 0 678 l 322 678 l 322 659 l 323 659 z"},"B":{"x_min":0,"x_max":376,"ha":376,"o":"m 272 368 q 278 362 280 359 q 323 307 323 207 q 323 107 280 55 q 235 0 142 0 l 94 0 l 0 0 l 0 35 l 35 35 l 47 35 l 59 35 l 142 35 q 217 35 253 78 q 287 119 287 207 q 287 294 253 337 q 236 357 210 369 q 287 400 287 530 q 287 618 252 660 q 217 701 142 701 l 47 701 l 35 701 l 0 701 l 0 737 l 142 737 q 235 737 280 681 q 323 629 323 530 q 323 430 280 378 q 276 372 272 368 z m 0 59 l 0 94 l 0 678 l 35 678 l 35 59 z m 264 530 q 264 451 235 416 q 206 380 142 380 l 59 380 l 59 678 l 142 678 q 207 678 235 643 q 264 608 264 530 z m 94 416 l 142 416 q 174 416 188 423 q 202 430 207 438 q 228 463 228 530 q 228 569 222 592 q 215 614 204 625 q 192 636 176 639 q 160 642 142 642 l 94 642 z m 59 357 l 142 357 q 206 357 235 322 q 264 286 264 207 q 264 130 235 93 q 207 59 142 59 l 59 59 z m 94 94 l 142 94 q 160 94 176 97 q 192 100 204 111 q 215 122 222 145 q 228 168 228 207 q 228 247 221 270 q 214 292 202 304 q 191 315 176 318 q 160 321 142 321 l 94 321 z"},"K":{"x_min":0,"x_max":457,"ha":457,"o":"m 36 1 l 1 1 l 1 268 l 0 268 l 1 270 l 1 738 l 36 738 z m 60 738 l 95 738 l 95 416 l 304 738 l 345 738 l 60 297 z m 137 372 l 342 1 l 302 1 l 134 303 l 95 242 l 95 1 l 60 1 l 60 253 z m 373 738 l 417 738 l 193 393 l 410 1 l 370 1 l 151 395 z"},"R":{"x_min":0,"x_max":417,"ha":417,"o":"m 247 0 l 247 218 q 247 315 153 315 l 106 315 l 94 315 l 94 0 l 59 0 l 59 351 l 141 351 l 153 351 q 215 351 249 316 q 283 282 283 218 l 283 0 z m 35 0 l 0 0 l 0 678 l 35 678 z m 141 375 l 59 375 l 59 678 l 153 678 q 221 678 251 643 q 281 607 281 527 q 281 446 251 410 q 221 375 153 375 z m 106 410 l 153 410 q 191 410 206 419 q 220 428 224 433 q 246 461 246 527 q 246 564 240 586 q 234 609 222 622 q 211 634 194 638 q 176 642 153 642 l 94 642 l 94 410 z m 286 362 q 313 336 328 300 q 342 264 342 218 l 342 0 l 306 0 l 306 218 q 306 292 263 335 q 245 351 221 362 q 305 394 305 527 q 305 616 269 658 q 232 701 153 701 l 47 701 l 35 701 l 0 701 l 0 737 l 153 737 q 248 737 296 681 q 340 630 340 527 q 340 425 296 372 q 294 370 292 367 q 289 364 286 362 z"},"T":{"x_min":0,"x_max":461,"ha":461,"o":"m 187 701 l -10 701 l -10 737 l 407 737 l 407 701 l 210 701 z m 187 0 l 151 0 l 151 642 l -10 642 l -10 678 l 187 678 z m 210 678 l 407 678 l 407 642 l 246 642 l 246 0 l 210 0 l 210 35 z"},"P":{"x_min":0,"x_max":384,"ha":384,"o":"m 282 532 q 282 453 252 418 q 221 383 153 383 l 59 383 l 59 680 l 153 680 q 221 680 251 646 q 282 611 282 532 z m 94 418 l 153 418 q 192 418 206 427 q 220 436 224 441 q 246 466 246 532 q 246 568 240 590 q 234 612 222 624 q 211 636 194 640 q 176 645 153 645 l 94 645 z m 35 2 l 0 2 l 0 680 l 35 680 z m 296 684 q 341 633 341 532 q 341 431 296 379 q 248 324 153 324 l 94 324 l 94 2 l 59 2 l 59 359 l 153 359 q 231 359 268 401 q 305 443 305 532 q 305 620 268 662 q 231 704 153 704 l 57 704 l 35 704 l 0 704 l 0 739 l 153 739 q 248 739 296 684 z"},"|":{"x_min":0,"x_max":202,"ha":202,"o":"m 65 738 l 65 1 l 30 1 l 30 738 z m 89 738 l 124 738 l 124 1 l 89 1 z"},"t":{"x_min":0,"x_max":461,"ha":461,"o":"m 187 701 l -10 701 l -10 737 l 407 737 l 407 701 l 210 701 z m 187 0 l 151 0 l 151 642 l -10 642 l -10 678 l 187 678 z m 210 678 l 407 678 l 407 642 l 246 642 l 246 0 l 210 0 l 210 35 z"},"M":{"x_min":0,"x_max":538,"ha":538,"o":"m 59 607 l 232 5 l 404 607 l 404 1 l 369 1 l 369 354 l 267 1 l 196 1 l 94 354 l 94 1 l 59 1 z m 444 738 l 463 738 l 463 1 l 428 1 l 428 702 l 407 702 l 232 91 l 56 702 l 35 702 l 35 1 l 0 1 l 0 738 l 11 738 l 35 738 l 46 738 l 68 738 l 83 738 l 232 219 l 380 738 l 388 738 l 417 738 l 428 738 z"},"g":{"x_min":0,"x_max":413,"ha":413,"o":"m 256 482 l 256 529 q 256 569 249 592 q 242 614 230 626 q 219 637 204 640 q 190 643 175 643 q 160 643 146 640 q 131 637 120 626 q 108 614 101 592 q 94 569 94 529 l 94 211 q 94 167 102 144 q 111 120 124 110 q 137 99 150 97 q 164 95 175 95 q 186 95 200 97 q 214 99 226 110 q 239 120 248 144 q 256 167 256 211 l 256 267 l 142 267 l 142 302 l 292 302 l 292 211 q 292 132 262 96 q 235 60 175 60 q 116 60 89 96 q 59 132 59 211 l 59 529 q 59 607 89 643 q 117 679 175 679 q 233 679 262 643 q 292 607 292 529 l 292 482 z m 316 482 l 316 529 q 316 614 281 658 q 246 702 175 702 q 105 702 70 658 q 35 614 35 529 l 35 211 q 35 125 70 81 q 106 36 175 36 q 245 36 281 81 q 316 125 316 211 l 316 326 l 142 326 l 142 361 l 351 361 l 351 211 q 351 112 308 59 q 292 39 260 20 q 229 1 175 1 q 121 1 90 20 q 59 39 43 59 q 0 112 0 211 l 0 529 q 0 627 43 680 q 88 738 175 738 q 263 738 308 680 q 351 627 351 529 l 351 482 z"},"j":{"x_min":0,"x_max":405,"ha":405,"o":"m 94 244 l 94 197 q 94 159 102 138 q 109 117 120 108 q 131 98 143 96 q 155 95 165 95 q 190 95 201 102 q 212 108 217 114 q 236 139 236 197 l 236 738 l 271 738 l 271 197 q 271 126 244 92 q 219 60 165 60 q 112 60 86 92 q 59 126 59 197 l 59 244 z m 330 738 l 330 197 q 330 105 290 55 q 276 36 246 18 q 216 1 165 1 q 115 1 85 18 q 55 36 40 55 q 0 105 0 197 l 0 244 l 35 244 l 35 197 q 35 117 68 77 q 101 36 165 36 q 230 36 263 77 q 295 118 295 197 l 295 738 z"},"i":{"x_min":0,"x_max":202,"ha":202,"o":"m 65 738 l 65 1 l 30 1 l 30 738 z m 89 738 l 124 738 l 124 1 l 89 1 z"},"y":{"x_min":0,"x_max":518,"ha":518,"o":"m 204 0 l 170 0 l 170 356 l -40 737 l 0 737 l 204 365 z m 216 393 l 27 737 l 68 737 l 217 466 l 367 737 l 405 737 z m 432 737 l 475 737 l 264 356 l 264 0 l 227 0 l 227 365 z"},"@":{"x_min":0,"x_max":692,"ha":692,"o":"m 396 225 q 372 231 376 257 q 377 263 380 280 q 383 297 386 320 q 390 344 394 372 q 399 399 404 426 q 408 453 412 476 q 416 500 419 517 l 454 511 l 446 465 q 446 464 442 438 q 437 412 432 378 q 426 343 420 308 q 415 274 412 258 q 419 258 430 260 q 440 262 454 268 q 477 278 495 293 q 513 308 519 325 q 528 347 532 374 q 535 400 533 426 q 531 453 524 478 q 518 502 506 520 q 489 545 466 564 q 442 583 413 594 q 384 604 351 606 q 318 608 284 601 q 202 584 148 524 q 93 464 79 374 q 66 294 90 234 q 113 174 173 138 q 211 115 258 105 q 304 95 352 98 q 400 100 446 115 q 492 130 529 157 l 567 185 l 588 157 q 571 144 562 137 q 556 133 550 128 q 509 98 458 82 q 407 65 354 62 q 300 59 248 70 q 196 82 154 108 q 86 150 58 220 q 30 289 44 380 q 53 439 78 484 q 102 528 134 560 q 166 591 204 610 q 241 628 277 636 q 316 644 354 642 q 393 639 426 626 q 460 613 488 591 q 516 569 536 539 q 550 518 558 490 q 566 461 568 430 q 571 400 566 369 q 562 338 552 312 q 544 291 528 274 q 511 258 492 246 q 472 235 451 229 q 430 223 413 223 q 401 223 396 225 z m 359 452 q 367 446 373 434 q 379 421 374 392 q 366 346 358 322 q 349 297 337 286 q 325 274 310 272 q 294 270 272 270 q 229 270 213 289 q 195 310 201 362 q 208 416 231 440 q 254 465 297 465 q 339 465 359 452 z m 339 398 q 341 410 340 415 q 340 420 339 422 q 336 424 326 426 q 315 429 297 429 q 286 429 276 427 q 267 425 259 418 q 251 411 245 397 q 239 383 236 358 q 234 338 236 327 q 237 316 240 312 q 246 306 272 306 q 289 306 299 306 q 309 307 313 311 q 318 316 324 334 q 331 353 339 398 z m 564 109 q 565 110 576 118 q 588 127 602 138 l 623 108 l 585 81 q 531 42 466 22 q 401 2 333 2 q 276 2 222 16 q 169 30 123 58 q 43 106 7 188 q -32 275 -14 389 q 6 513 87 596 q 123 634 168 658 q 214 682 265 693 q 313 703 360 700 q 407 697 449 681 q 491 665 526 637 q 561 609 586 571 q 603 544 614 508 q 625 472 628 433 q 630 395 625 358 q 620 321 607 290 q 595 259 569 233 q 543 207 508 188 q 474 171 440 166 q 407 160 380 168 q 339 179 323 215 q 309 212 296 212 q 283 211 272 211 q 203 211 169 250 q 133 291 143 370 q 152 442 187 480 q 228 524 297 524 q 311 524 326 522 q 342 521 359 516 l 360 527 l 395 521 q 393 509 390 494 q 388 478 385 460 q 382 463 379 466 q 376 469 372 471 q 355 482 333 485 q 311 488 297 488 q 193 488 178 365 q 169 303 196 273 q 218 246 272 246 q 298 246 318 250 q 338 253 354 268 q 353 265 353 260 q 349 237 359 222 q 369 207 390 202 q 410 197 437 202 q 464 206 492 220 q 521 235 542 256 q 564 278 574 303 q 585 331 590 364 q 594 396 592 430 q 587 502 556 552 q 535 585 504 610 q 473 634 436 648 q 399 662 357 665 q 315 668 272 659 q 179 639 112 572 q 76 535 53 488 q 30 440 21 384 q 5 286 36 210 q 67 134 142 88 q 182 63 230 50 q 279 38 333 38 q 338 38 344 38 q 349 38 355 39 q 414 42 468 60 q 521 78 564 109 z"},".":{"x_min":0,"x_max":186,"ha":186,"o":"m 0 107 l 94 107 l 94 1 l 0 1 z m 59 36 l 59 71 l 35 71 l 35 36 z"},"p":{"x_min":0,"x_max":384,"ha":384,"o":"m 282 532 q 282 453 252 418 q 221 383 153 383 l 59 383 l 59 680 l 153 680 q 221 680 251 646 q 282 611 282 532 z m 94 418 l 153 418 q 192 418 206 427 q 220 436 224 441 q 246 466 246 532 q 246 568 240 590 q 234 612 222 624 q 211 636 194 640 q 176 645 153 645 l 94 645 z m 35 2 l 0 2 l 0 680 l 35 680 z m 296 684 q 341 633 341 532 q 341 431 296 379 q 248 324 153 324 l 94 324 l 94 2 l 59 2 l 59 359 l 153 359 q 231 359 268 401 q 305 443 305 532 q 305 620 268 662 q 231 704 153 704 l 57 704 l 35 704 l 0 704 l 0 739 l 153 739 q 248 739 296 684 z"},"X":{"x_min":0,"x_max":498,"ha":498,"o":"m 41 0 l 0 0 l 174 368 l 3 737 l 42 737 l 215 369 z m 228 397 l 68 737 l 108 737 l 227 479 l 349 737 l 389 737 z m 454 737 l 279 368 l 452 0 l 415 0 l 241 369 l 415 737 z m 228 341 l 389 0 l 348 0 l 227 258 l 105 0 l 67 0 z"},"*":{"x_min":0,"x_max":368,"ha":368,"o":"m 176 738 l 211 738 l 211 648 l 295 679 l 307 647 l 176 597 z m 152 597 l 21 646 l 33 679 l 117 648 l 117 738 l 152 738 z m 184 575 l 315 625 l 328 591 l 245 560 l 308 488 l 281 465 z m 20 488 l 83 560 l 0 591 l 12 624 l 144 575 l 48 464 z m 164 562 l 263 449 l 237 426 l 164 508 l 91 426 l 65 449 z"},"Y":{"x_min":0,"x_max":518,"ha":518,"o":"m 204 0 l 170 0 l 170 356 l -40 737 l 0 737 l 204 365 z m 216 393 l 27 737 l 68 737 l 217 466 l 367 737 l 405 737 z m 432 737 l 475 737 l 264 356 l 264 0 l 227 0 l 227 365 z"},"c":{"x_min":0,"x_max":409,"ha":409,"o":"m 314 480 l 314 527 q 314 613 280 657 q 244 701 175 701 q 106 701 70 657 q 35 611 35 527 l 35 210 q 35 156 48 122 q 61 87 81 68 q 101 49 126 42 q 151 35 175 35 q 199 35 224 42 q 248 49 268 68 q 288 87 301 122 q 314 156 314 210 l 314 258 l 350 258 l 350 210 q 350 113 307 59 q 291 39 260 20 q 229 0 175 0 q 148 0 127 6 q 106 11 90 20 q 73 28 62 38 q 50 49 42 59 q 0 111 0 210 l 0 527 q 0 625 42 678 q 50 688 62 698 q 73 709 90 718 q 106 726 127 732 q 148 737 175 737 q 229 737 260 718 q 291 698 307 678 q 350 624 350 527 l 350 480 z m 175 678 q 291 678 291 527 l 291 480 l 255 480 l 255 527 q 255 570 246 594 q 238 617 226 628 q 213 638 199 640 q 185 642 175 642 q 164 642 150 640 q 137 638 124 628 q 111 617 102 594 q 94 570 94 527 l 94 210 q 94 145 117 117 q 122 109 135 102 q 148 94 175 94 q 202 94 214 102 q 227 109 233 117 q 255 145 255 210 l 255 258 l 291 258 l 291 210 q 291 59 175 59 q 59 59 59 210 l 59 527 q 59 678 175 678 z"},"!":{"x_min":0,"x_max":146,"ha":146,"o":"m 35 739 l 35 163 l 0 163 l 0 739 z m 59 739 l 94 739 l 94 163 l 59 163 z m 59 37 l 59 108 l 94 108 l 94 2 l 0 2 l 0 108 l 35 108 l 35 37 z"},"/":{"x_min":0,"x_max":417,"ha":417,"o":"m 313 739 l 37 2 l 0 2 l 273 739 z m 338 739 l 374 739 l 101 2 l 62 2 z"},"[":{"x_min":0,"x_max":833,"ha":833,"o":""},"6":{"x_min":0,"x_max":368,"ha":368,"o":"m 35 284 l 35 282 l 35 187 q 35 115 67 74 q 99 33 156 33 q 214 33 248 87 q 262 110 270 142 q 277 173 277 209 l 277 282 q 277 366 248 410 q 216 454 156 454 q 92 454 59 392 l 59 483 q 59 510 62 544 q 66 577 76 606 q 86 636 105 656 q 124 676 156 676 q 204 676 228 643 q 253 611 253 549 l 253 518 l 218 518 l 218 549 q 218 598 200 621 q 195 628 186 634 q 176 640 156 640 q 135 640 123 622 q 111 604 104 579 q 98 554 96 528 q 94 501 94 483 l 94 476 q 124 490 156 490 q 235 490 277 430 q 313 376 313 282 l 313 209 q 313 161 302 122 q 290 84 270 56 q 249 28 220 13 q 191 -2 156 -2 q 80 -2 37 56 q 0 105 0 187 l 0 282 l 0 284 l 0 483 q 0 593 33 656 q 53 694 84 714 q 116 735 156 735 q 233 735 276 678 q 313 629 313 549 l 313 518 l 277 518 l 277 549 q 277 618 247 657 q 215 699 156 699 q 95 699 64 639 q 35 583 35 483 z m 156 57 q 109 57 84 91 q 59 125 59 187 l 59 283 q 59 349 85 389 q 110 431 156 431 q 253 431 253 282 l 253 209 q 253 142 228 100 q 201 57 156 57 z m 156 395 q 134 395 122 380 q 110 364 104 344 q 98 325 96 307 q 94 289 94 283 l 94 187 q 94 137 113 112 q 118 105 127 98 q 136 92 156 92 q 174 92 186 104 q 198 116 205 134 q 212 152 215 172 q 218 192 218 209 l 218 282 q 218 324 211 347 q 204 370 194 380 q 185 391 174 393 q 163 395 156 395 z"},"r":{"x_min":0,"x_max":417,"ha":417,"o":"m 247 0 l 247 218 q 247 315 153 315 l 106 315 l 94 315 l 94 0 l 59 0 l 59 351 l 141 351 l 153 351 q 215 351 249 316 q 283 282 283 218 l 283 0 z m 35 0 l 0 0 l 0 678 l 35 678 z m 141 375 l 59 375 l 59 678 l 153 678 q 221 678 251 643 q 281 607 281 527 q 281 446 251 410 q 221 375 153 375 z m 106 410 l 153 410 q 191 410 206 419 q 220 428 224 433 q 246 461 246 527 q 246 564 240 586 q 234 609 222 622 q 211 634 194 638 q 176 642 153 642 l 94 642 l 94 410 z m 286 362 q 313 336 328 300 q 342 264 342 218 l 342 0 l 306 0 l 306 218 q 306 292 263 335 q 245 351 221 362 q 305 394 305 527 q 305 616 269 658 q 232 701 153 701 l 47 701 l 35 701 l 0 701 l 0 737 l 153 737 q 248 737 296 681 q 340 630 340 527 q 340 425 296 372 q 294 370 292 367 q 289 364 286 362 z"},"2":{"x_min":0,"x_max":360,"ha":360,"o":"m 35 491 l 0 491 l 0 538 q 0 629 37 679 q 51 698 80 716 q 108 735 156 735 q 190 735 218 722 q 247 708 267 684 q 287 659 299 624 q 311 589 312 547 l 313 547 l 313 538 l 312 538 q 311 503 304 476 q 297 448 286 424 q 275 401 261 380 q 247 360 232 340 q 223 329 214 316 q 205 304 196 290 q 175 258 158 232 q 141 206 129 182 q 117 159 110 138 q 102 116 98 92 l 156 92 l 265 92 l 313 92 l 313 57 l 59 57 q 60 93 68 124 q 76 154 90 183 q 103 212 122 242 q 142 273 166 309 q 176 324 185 336 q 194 349 203 362 q 218 382 231 400 q 244 419 254 440 q 264 460 270 484 q 276 508 277 538 l 277 547 q 275 610 248 650 q 215 699 156 699 q 97 699 65 658 q 35 617 35 538 z m 313 33 l 313 -2 l 265 -2 l 156 -2 l 0 -2 l 0 45 q 0 90 8 128 q 17 166 33 200 q 49 235 70 270 q 91 304 117 342 q 128 358 138 372 q 147 385 156 397 q 170 416 182 432 q 193 448 201 464 q 209 481 214 500 q 218 518 218 542 q 218 551 216 567 q 214 583 208 600 q 201 616 189 628 q 177 640 156 640 q 148 640 138 638 q 127 637 117 628 q 107 618 100 597 q 94 576 94 538 l 94 491 l 59 491 l 59 538 q 59 608 84 644 q 108 676 156 676 q 202 676 228 637 q 253 601 253 542 q 253 513 248 491 q 242 469 233 450 q 224 431 212 413 q 200 395 185 376 q 175 363 166 350 q 157 337 146 323 q 121 285 100 252 q 80 220 66 188 q 51 155 43 121 q 35 87 35 45 l 35 33 l 156 33 z"},"{":{"x_min":0,"x_max":833,"ha":833,"o":""},"9":{"x_min":0,"x_max":368,"ha":368,"o":"m 313 451 l 313 450 l 313 249 q 313 193 304 150 q 296 107 280 75 q 238 -2 156 -2 q 118 -2 88 13 q 57 28 36 57 q 0 106 0 192 l 0 224 l 35 224 l 35 192 q 35 116 66 74 q 98 33 156 33 q 218 33 248 92 q 277 147 277 249 l 277 450 l 277 451 l 277 548 q 277 620 246 660 q 214 699 156 699 q 101 699 68 652 q 35 605 35 525 l 35 451 q 35 365 65 323 q 95 277 156 277 q 188 277 213 294 q 238 310 253 340 l 253 249 q 253 216 249 182 q 245 148 234 120 q 224 92 205 74 q 186 57 156 57 q 109 57 84 91 q 59 127 59 192 l 59 224 l 94 224 l 94 192 q 94 154 102 134 q 109 114 120 104 q 130 95 140 94 q 150 92 156 92 q 176 92 188 108 q 201 124 208 148 q 214 172 216 200 q 218 227 218 249 l 218 256 q 191 242 156 242 q 77 242 36 303 q 0 355 0 451 l 0 525 q 0 610 35 665 q 56 699 87 717 q 118 735 156 735 q 232 735 276 679 q 313 628 313 548 z m 156 676 q 204 676 228 643 q 241 626 247 602 q 253 578 253 548 l 253 450 q 253 384 228 343 q 202 301 156 301 q 59 301 59 451 l 59 525 q 59 593 85 634 q 110 676 156 676 z m 218 548 q 218 582 210 601 q 203 620 193 628 q 183 637 172 638 q 162 640 156 640 q 133 640 120 624 q 108 607 102 587 q 96 567 95 548 q 94 529 94 525 l 94 451 q 94 408 101 384 q 108 361 118 350 q 127 340 138 338 q 148 336 156 336 q 178 336 190 352 q 203 367 209 387 q 215 407 216 426 q 218 444 218 450 z"}," ":{"x_min":0,"x_max":308,"ha":308,"o":""},"I":{"x_min":0,"x_max":202,"ha":202,"o":"m 65 738 l 65 1 l 30 1 l 30 738 z m 89 738 l 124 738 l 124 1 l 89 1 z"},"H":{"x_min":0,"x_max":409,"ha":409,"o":"m 35 357 l 35 1 l 0 1 l 0 738 l 35 738 l 35 381 z m 59 738 l 94 738 l 94 416 l 236 416 l 236 738 l 272 738 l 272 381 l 59 381 z m 272 1 l 236 1 l 236 322 l 94 322 l 94 1 l 59 1 l 59 357 l 272 357 z m 295 738 l 331 738 l 331 1 l 295 1 l 295 357 l 295 381 z"},"4":{"x_min":0,"x_max":380,"ha":380,"o":"m 295 735 l 316 735 l 316 -2 l 281 -2 l 281 700 l 263 700 l 29 276 l 29 239 l 257 239 l 257 -2 l 222 -2 l 222 203 l 0 203 l 0 298 l 230 735 l 243 735 z m 58 262 l 58 280 l 257 642 l 257 262 z m 222 517 l 108 298 l 222 298 z"},"~":{"x_min":0,"x_max":833,"ha":833,"o":""},"D":{"x_min":0,"x_max":392,"ha":392,"o":"m 35 59 l 0 59 l 0 678 l 35 678 z m 290 677 q 334 624 334 523 l 334 213 q 334 112 290 59 q 242 0 147 0 l 0 0 l 0 35 l 35 35 l 47 35 l 147 35 q 223 35 263 81 q 299 126 299 213 l 299 523 q 299 610 263 655 q 224 701 147 701 l 47 701 l 35 701 l 0 701 l 0 737 l 147 737 q 242 737 290 677 z m 244 96 q 214 59 147 59 l 59 59 l 59 678 l 147 678 q 215 678 244 640 q 275 603 275 523 l 275 213 q 275 134 244 96 z m 94 94 l 147 94 q 165 94 182 97 q 198 100 210 112 q 223 124 231 148 q 239 172 239 213 l 239 523 q 239 564 231 588 q 223 612 210 624 q 198 636 182 639 q 165 642 147 642 l 94 642 z"},"^":{"x_min":0,"x_max":833,"ha":833,"o":""},"0":{"x_min":0,"x_max":376,"ha":376,"o":"m 156 676 q 253 676 253 523 l 253 210 q 253 57 156 57 q 59 57 59 210 l 59 523 q 59 676 156 676 z m 218 523 q 218 567 210 590 q 203 614 193 625 q 183 636 172 638 q 162 640 156 640 q 150 640 140 638 q 129 636 119 625 q 109 614 102 590 q 94 567 94 523 l 94 210 q 94 166 102 142 q 109 118 119 107 q 129 96 140 94 q 150 92 156 92 q 162 92 172 94 q 183 96 193 107 q 203 118 210 142 q 218 166 218 210 z m 277 672 q 313 618 313 523 l 313 210 q 313 115 277 61 q 236 -2 156 -2 q 76 -2 35 61 q 0 116 0 210 l 0 523 q 0 617 35 672 q 76 735 156 735 q 236 735 277 672 z m 277 523 q 277 608 248 652 q 217 699 156 699 q 94 699 65 652 q 35 608 35 523 l 35 210 q 35 126 65 81 q 95 33 156 33 q 216 33 248 81 q 277 127 277 210 z"},"F":{"x_min":0,"x_max":372,"ha":372,"o":"m 305 642 l 94 642 l 94 416 l 305 416 l 305 380 l 59 380 l 59 678 l 305 678 z m 35 357 l 35 0 l 0 0 l 0 737 l 305 737 l 305 701 l 35 701 l 35 380 z m 59 357 l 305 357 l 305 321 l 94 321 l 94 0 l 59 0 z"},"`":{"x_min":0,"x_max":158,"ha":158,"o":"m 0 739 l 94 739 l 94 588 l 0 588 z m 35 623 l 59 623 l 59 703 l 35 703 z"},"k":{"x_min":0,"x_max":457,"ha":457,"o":"m 36 1 l 1 1 l 1 268 l 0 268 l 1 270 l 1 738 l 36 738 z m 60 738 l 95 738 l 95 416 l 304 738 l 345 738 l 60 297 z m 137 372 l 342 1 l 302 1 l 134 303 l 95 242 l 95 1 l 60 1 l 60 253 z m 373 738 l 417 738 l 193 393 l 410 1 l 370 1 l 151 395 z"},"u":{"x_min":0,"x_max":405,"ha":405,"o":"m 94 737 l 94 196 q 94 158 102 137 q 109 116 120 106 q 131 97 143 96 q 155 94 165 94 q 175 94 187 96 q 199 97 210 106 q 221 116 228 137 q 236 158 236 196 l 236 737 l 271 737 l 271 196 q 271 125 244 91 q 219 59 165 59 q 112 59 86 91 q 59 125 59 196 l 59 737 z m 330 737 l 330 196 q 330 104 290 55 q 275 35 245 18 q 215 0 165 0 q 115 0 85 18 q 55 35 40 55 q 0 104 0 196 l 0 737 l 35 737 l 35 196 q 35 117 68 77 q 101 35 165 35 q 230 35 262 77 q 295 117 295 196 l 295 737 z"},"]":{"x_min":0,"x_max":833,"ha":833,"o":""},"U":{"x_min":0,"x_max":405,"ha":405,"o":"m 94 737 l 94 196 q 94 158 102 137 q 109 116 120 106 q 131 97 143 96 q 155 94 165 94 q 175 94 187 96 q 199 97 210 106 q 221 116 228 137 q 236 158 236 196 l 236 737 l 271 737 l 271 196 q 271 125 244 91 q 219 59 165 59 q 112 59 86 91 q 59 125 59 196 l 59 737 z m 330 737 l 330 196 q 330 104 290 55 q 275 35 245 18 q 215 0 165 0 q 115 0 85 18 q 55 35 40 55 q 0 104 0 196 l 0 737 l 35 737 l 35 196 q 35 117 68 77 q 101 35 165 35 q 230 35 262 77 q 295 117 295 196 l 295 737 z"},"o":{"x_min":0,"x_max":405,"ha":405,"o":"m 175 680 q 234 680 261 644 q 291 608 291 530 l 291 212 q 291 61 175 61 q 59 61 59 212 l 59 530 q 59 608 89 644 q 116 680 175 680 z m 256 530 q 256 573 248 596 q 239 620 226 630 q 213 641 199 643 q 185 645 175 645 q 164 645 150 643 q 137 641 124 630 q 111 620 102 596 q 94 573 94 530 l 94 212 q 94 168 102 144 q 111 121 124 110 q 137 100 150 98 q 164 96 175 96 q 185 96 199 98 q 213 100 226 110 q 239 121 248 144 q 256 168 256 212 z m 308 681 q 350 627 350 530 l 350 212 q 350 113 308 61 q 300 51 288 40 q 277 30 260 22 q 244 13 223 8 q 202 2 175 2 q 121 2 90 22 q 58 41 42 61 q 0 113 0 212 l 0 530 q 0 627 42 681 q 58 701 90 720 q 121 739 175 739 q 229 739 260 720 q 292 701 308 681 z m 315 530 q 315 615 280 659 q 244 704 175 704 q 106 704 70 659 q 35 615 35 530 l 35 212 q 35 127 70 83 q 107 37 175 37 q 243 37 280 83 q 315 127 315 212 z"},"N":{"x_min":0,"x_max":425,"ha":425,"o":"m 318 739 l 354 739 l 354 2 l 343 2 l 318 2 l 313 2 l 286 2 l 274 2 l 94 448 l 94 2 l 59 2 l 59 631 l 298 38 l 318 38 z m 56 703 l 35 703 l 35 2 l 0 2 l 0 739 l 10 739 l 35 739 l 41 739 l 67 739 l 79 739 l 259 293 l 259 739 l 295 739 l 295 110 z"},"+":{"x_min":0,"x_max":457,"ha":457,"o":"m 205 563 l 241 563 l 241 417 l 387 417 l 387 382 l 205 382 z m 182 382 l 0 382 l 0 417 l 146 417 l 146 563 l 182 563 z m 205 358 l 387 358 l 387 323 l 241 323 l 241 176 l 205 176 z m 182 176 l 146 176 l 146 323 l 0 323 l 0 358 l 182 358 z"},"G":{"x_min":0,"x_max":413,"ha":413,"o":"m 256 482 l 256 529 q 256 569 249 592 q 242 614 230 626 q 219 637 204 640 q 190 643 175 643 q 160 643 146 640 q 131 637 120 626 q 108 614 101 592 q 94 569 94 529 l 94 211 q 94 167 102 144 q 111 120 124 110 q 137 99 150 97 q 164 95 175 95 q 186 95 200 97 q 214 99 226 110 q 239 120 248 144 q 256 167 256 211 l 256 267 l 142 267 l 142 302 l 292 302 l 292 211 q 292 132 262 96 q 235 60 175 60 q 116 60 89 96 q 59 132 59 211 l 59 529 q 59 607 89 643 q 117 679 175 679 q 233 679 262 643 q 292 607 292 529 l 292 482 z m 316 482 l 316 529 q 316 614 281 658 q 246 702 175 702 q 105 702 70 658 q 35 614 35 529 l 35 211 q 35 125 70 81 q 106 36 175 36 q 245 36 281 81 q 316 125 316 211 l 316 326 l 142 326 l 142 361 l 351 361 l 351 211 q 351 112 308 59 q 292 39 260 20 q 229 1 175 1 q 121 1 90 20 q 59 39 43 59 q 0 112 0 211 l 0 529 q 0 627 43 680 q 88 738 175 738 q 263 738 308 680 q 351 627 351 529 l 351 482 z"},"q":{"x_min":0,"x_max":405,"ha":405,"o":"m 345 -45 l 296 -45 l 248 14 q 217 0 175 0 q 121 0 90 20 q 58 40 42 61 q 0 115 0 214 l 0 530 q 0 597 18 638 q 36 679 62 701 q 89 723 120 730 q 150 737 175 737 q 199 737 230 730 q 260 723 287 701 q 314 679 332 638 q 350 597 350 530 l 350 214 q 350 130 318 77 l 419 -45 l 376 -45 l 275 77 q 277 78 278 79 q 278 80 280 82 q 314 130 314 214 l 314 530 q 314 701 175 701 q 35 701 35 530 l 35 214 q 35 129 70 82 q 106 35 175 35 q 224 35 258 60 z m 250 156 q 252 167 254 183 q 255 199 255 214 l 255 530 q 255 569 248 592 q 241 614 230 625 q 218 636 204 639 q 190 642 175 642 q 160 642 146 639 q 131 636 120 625 q 108 614 101 592 q 94 569 94 530 l 94 214 q 94 147 117 118 q 123 110 136 102 q 148 94 175 94 l 182 94 l 111 182 l 156 182 l 243 79 q 217 59 175 59 q 59 59 59 214 l 59 530 q 59 606 87 642 q 115 678 175 678 q 235 678 262 642 q 290 606 290 530 l 290 214 q 290 133 259 95 l 187 182 l 229 182 z"},"d":{"x_min":0,"x_max":392,"ha":392,"o":"m 35 59 l 0 59 l 0 678 l 35 678 z m 290 677 q 334 624 334 523 l 334 213 q 334 112 290 59 q 242 0 147 0 l 0 0 l 0 35 l 35 35 l 47 35 l 147 35 q 223 35 263 81 q 299 126 299 213 l 299 523 q 299 610 263 655 q 224 701 147 701 l 47 701 l 35 701 l 0 701 l 0 737 l 147 737 q 242 737 290 677 z m 244 96 q 214 59 147 59 l 59 59 l 59 678 l 147 678 q 215 678 244 640 q 275 603 275 523 l 275 213 q 275 134 244 96 z m 94 94 l 147 94 q 165 94 182 97 q 198 100 210 112 q 223 124 231 148 q 239 172 239 213 l 239 523 q 239 564 231 588 q 223 612 210 624 q 198 636 182 639 q 165 642 147 642 l 94 642 z"},"1":{"x_min":0,"x_max":275,"ha":275,"o":"m 73 506 l 48 526 l 150 675 l 150 -2 l 115 -2 l 115 563 z m 197 735 l 209 735 l 209 -2 l 174 -2 l 174 707 l 144 707 l 30 541 l 0 566 l 118 735 l 134 735 l 163 735 l 174 735 z"},"5":{"x_min":0,"x_max":372,"ha":372,"o":"m 94 259 l 0 259 l 0 261 l 0 292 l 0 735 l 94 735 l 313 735 l 313 699 l 59 699 l 35 699 l 35 296 l 35 292 l 59 292 q 59 310 62 332 q 66 355 76 374 q 86 394 105 408 q 124 421 156 421 q 253 421 253 276 l 253 205 q 253 140 228 99 q 201 57 156 57 q 132 57 114 66 q 96 76 84 90 q 72 104 66 122 q 59 139 59 154 l 59 170 l 94 170 l 94 154 q 94 148 97 138 q 100 127 108 117 q 115 107 126 100 q 138 92 156 92 q 174 92 186 104 q 198 115 205 132 q 212 150 215 170 q 218 189 218 205 l 218 276 q 218 316 212 337 q 206 358 199 367 q 194 374 185 380 q 176 386 156 386 q 136 386 127 380 q 118 373 113 367 q 94 342 94 292 l 94 261 z m 94 640 l 94 469 q 124 480 156 480 q 205 480 234 460 q 263 441 277 421 q 313 370 313 276 l 313 205 q 313 123 278 67 q 235 -2 156 -2 q 121 -2 91 12 q 61 26 39 52 q 20 74 10 101 q 0 128 0 154 l 0 170 l 35 170 l 35 154 q 35 134 44 113 q 52 92 66 75 q 102 33 156 33 q 215 33 248 86 q 262 109 270 140 q 277 170 277 205 l 277 276 q 277 358 248 401 q 216 445 156 445 q 97 445 65 402 l 59 393 l 59 676 l 313 676 l 313 640 z"}}}
